<?xml version="1.0" encoding="iso-8859-1"?>
<!-- Generator: Adobe Illustrator 16.0.0, SVG Export Plug-In . SVG Version: 6.00 Build 0)  -->
<!DOCTYPE svg PUBLIC "-//W3C//DTD SVG 1.1//EN" "http://www.w3.org/Graphics/SVG/1.1/DTD/svg11.dtd">
<svg version="1.1" id="Capa_1" xmlns="http://www.w3.org/2000/svg" xmlns:xlink="http://www.w3.org/1999/xlink" x="0px" y="0px"
	 width="46.162px" height="46.162px" viewBox="0 0 46.162 46.162" style="enable-background:new 0 0 46.162 46.162;"
	 xml:space="preserve">
<g>
	<g>
		<path d="M32.618,26.328l-1.656-0.415l-4.973,5.347c-0.756,0.812-1.815,1.274-2.925,1.274c-1.109,0-2.17-0.462-2.925-1.276
			l-4.967-5.346l-1.643,0.415c-4.938,1.235-8.391,5.674-8.391,10.766v6.685c0,1.316,1.044,2.385,2.359,2.385h31.136
			c1.315,0,2.392-1.067,2.392-2.385v-6.685C41.026,32.002,37.558,27.564,32.618,26.328z"/>
		<path d="M22.267,13.452h1.633c0.199,1.372,1.396,2.444,2.844,2.444c1.586,0,2.873-1.286,2.873-2.873S28.329,11.4,26.743,11.4
			c-1.356,0-2.492,0.029-2.795,1.041h-1.73C21.916,11.43,20.78,11.4,19.423,11.4c-1.586,0-2.873,0.028-2.873,1.616
			c0,1.588,1.287,2.884,2.873,2.884C20.868,15.9,22.066,14.824,22.267,13.452z"/>
		<path d="M13.327,18.528c1.814,4.453,5.418,8.125,9.686,8.125c0.005,0,0.137,0,0.141,0c4.269,0,7.871-3.671,9.687-8.125
			c1.265-0.291,2.418-1.349,2.608-3.669c0.181-2.182-0.479-3.162-1.369-3.595C33.724,1.397,28.637,0,23.153,0
			c-0.022,0-0.046,0-0.069,0c-0.023,0-0.047,0-0.07,0c-5.482,0-10.57,1.397-10.926,11.264c-0.889,0.433-1.549,1.413-1.369,3.595
			C10.909,17.178,12.064,18.237,13.327,18.528z M23.091,24.593c-0.002,0-0.005,0-0.008,0c-0.002,0-0.006,0-0.008,0
			c-1.46-0.006-2.638-1.125-2.638-2.47c0-1.348,1.183-2.469,2.646-2.469c1.463,0,2.646,1.122,2.646,2.469
			C25.729,23.468,24.551,24.587,23.091,24.593z M23.081,4.258h0.002h0.002c8.412-2.109,8.933,5.899,8.887,9.075
			c-0.051,3.404-1.844,6.984-4.195,9.2c0.012-0.135,0.021-0.271,0.021-0.41c0-2.487-2.11-4.537-4.713-4.537
			c-2.603,0-4.713,2.05-4.713,4.537c0,0.139,0.008,0.275,0.021,0.41c-2.353-2.216-4.146-5.796-4.196-9.2
			C14.149,10.158,14.669,2.149,23.081,4.258z"/>
	</g>
</g>
<g>
</g>
<g>
</g>
<g>
</g>
<g>
</g>
<g>
</g>
<g>
</g>
<g>
</g>
<g>
</g>
<g>
</g>
<g>
</g>
<g>
</g>
<g>
</g>
<g>
</g>
<g>
</g>
<g>
</g>
</svg>
